<svg width="71" height="71" viewBox="0 0 71 71" fill="none" xmlns="http://www.w3.org/2000/svg">
<path d="M35.2 70.4C54.6404 70.4 70.4 54.6404 70.4 35.2C70.4 15.7596 54.6404 0 35.2 0C15.7596 0 0 15.7596 0 35.2C0 54.6404 15.7596 70.4 35.2 70.4Z" fill="#DDEEDC"/>
<path d="M55 18.7002H16.5C13.4624 18.7002 11 21.1626 11 24.2002V45.1002C11 48.1378 13.4624 50.6002 16.5 50.6002H55C58.0376 50.6002 60.5 48.1378 60.5 45.1002V24.2002C60.5 21.1626 58.0376 18.7002 55 18.7002Z" fill="#F8F5EF" stroke="#2F5D50" stroke-width="2.75"/>
<path d="M11 26.9502H60.5" stroke="#6FAF7A" stroke-width="2.75"/>
<path d="M18.7002 41.25H31.9002" stroke="#2F5D50" stroke-width="2.75" stroke-linecap="round"/>
</svg>
