<svg width="512" height="512" viewBox="0 0 512 512" fill="none" xmlns="http://www.w3.org/2000/svg">
<g clip-path="url(#clip0_130_7)">
<path d="M512 0H0V512H512V0Z" fill="#EDF3E9"/>
<path d="M268.443 209.382C268.443 161.272 268.443 107.148 268.443 59.0381" stroke="#245846" stroke-width="10" stroke-linecap="round"/>
<path d="M268.443 194.24C250.056 149.894 227.342 115.282 201.383 88.2422" stroke="#245846" stroke-width="10" stroke-linecap="round"/>
<path d="M268.443 194.24C290.075 152.057 322.524 115.283 359.298 83.916" stroke="#245846" stroke-width="10" stroke-linecap="round"/>
<path d="M268.443 200.729C238.158 170.444 205.71 154.22 171.098 147.73" stroke="#245846" stroke-width="10" stroke-linecap="round"/>
<path d="M268.443 198.566C310.626 168.281 348.482 154.22 397.155 147.73" stroke="#245846" stroke-width="10" stroke-linecap="round"/>
<path d="M268.763 27.4447C301.02 61.2275 305.684 101.689 268.132 126.083C238.188 90.2986 237.45 55.5432 268.763 27.4447Z" fill="#84B46F" stroke="#245846" stroke-width="10" stroke-linejoin="round"/>
<path d="M380.93 72.0176C373.359 116.364 339.829 143.404 301.973 137.996C310.626 94.7314 339.829 74.1808 380.93 72.0176Z" fill="#84B46F" stroke="#245846" stroke-width="10" stroke-linejoin="round"/>
<path d="M182.398 64.8684C225.172 70.1721 250.6 100.675 240.927 137.656C198.349 133.416 174.378 104.844 182.398 64.8684Z" fill="#84B46F" stroke="#245846" stroke-width="10" stroke-linejoin="round"/>
<path d="M129.531 136.709C165.628 117.024 203.473 129.25 220.739 165.369C185.627 186.979 144.939 181.069 122.433 153.705C129.666 151.22 136.406 147.771 141.668 141.433C135.376 141.008 131.009 139.598 129.531 136.709Z" fill="#84B46F" stroke="#245846" stroke-width="10" stroke-linejoin="round"/>
<path d="M406.761 141.148C367.581 125.481 329.789 140.316 315.248 176.454C354.316 195.54 396.69 187.015 419.232 157.302C411.756 155.686 405.032 152.042 399.06 146.369C405.258 145.205 408.414 142.914 406.761 141.148Z" fill="#84B46F" stroke="#245846" stroke-width="10" stroke-linejoin="round"/>
<path d="M271.178 60.2402C273.009 79.8926 272.839 97.2313 270.433 115.493" stroke="#245846" stroke-width="7" stroke-linecap="round"/>
<path d="M358.217 93.6504C340.911 108.793 325.768 121.772 311.707 135.833" stroke="#245846" stroke-width="7" stroke-linecap="round"/>
<path d="M198.613 87.1719C213.062 99.9034 225.383 113.028 235.969 128.672" stroke="#245846" stroke-width="7" stroke-linecap="round"/>
<path d="M143.078 152.093C166.792 153.324 189.566 157.466 210.906 163.556" stroke="#245846" stroke-width="7" stroke-linecap="round"/>
<path d="M393.643 156.49C369.225 160.132 346.084 166.554 325.986 174.103" stroke="#245846" stroke-width="7" stroke-linecap="round"/>
<path d="M215.777 216.198H322.856C334.754 216.198 343.407 225.933 341.243 237.83L325.019 328.686C322.856 338.42 314.203 345.991 304.469 345.991H234.164C224.43 345.991 215.777 338.42 213.614 328.686L197.389 237.83C195.226 225.933 203.879 216.198 215.777 216.198Z" fill="#CFE3B9" stroke="#245846" stroke-width="8" stroke-linejoin="round"/>
<path d="M331.509 209.709H208.206C202.232 209.709 197.389 214.552 197.389 220.525V234.586C197.389 240.56 202.232 245.402 208.206 245.402H331.509C337.482 245.402 342.325 240.56 342.325 234.586V220.525C342.325 214.552 337.482 209.709 331.509 209.709Z" fill="#CFE3B9" stroke="#245846" stroke-width="8"/>
<path d="M86.5209 208.277L118.329 208.048C129.505 207.967 137.292 214.788 139.945 225.086L163.067 331.525" stroke="#245846" stroke-width="12" stroke-linecap="round" stroke-linejoin="round"/>
<path d="M85.2478 191.668H62.0358C55.3886 191.668 50 197.057 50 203.704C50 210.351 55.3886 215.74 62.0358 215.74H85.2478C91.895 215.74 97.2836 210.351 97.2836 203.704C97.2836 197.057 91.895 191.668 85.2478 191.668Z" fill="#9FC985" stroke="#245846" stroke-width="12"/>
<path d="M154.024 232.074H381.845C393.881 232.074 401.618 243.25 398.179 254.426L374.108 343.836C371.529 353.292 363.791 359.31 353.475 359.31H185.833C175.517 359.31 167.779 352.433 165.2 342.116L144.567 244.97C142.848 238.092 147.146 232.074 154.024 232.074Z" stroke="#245846" stroke-width="12" stroke-linejoin="round"/>
<path d="M189.272 232.074L199.588 359.31" stroke="#245846" stroke-width="5" stroke-linecap="round"/>
<path d="M239.994 232.074L242.573 359.31" stroke="#245846" stroke-width="5" stroke-linecap="round"/>
<path d="M292.436 232.074L282.12 359.31" stroke="#245846" stroke-width="5" stroke-linecap="round"/>
<path d="M344.018 232.074L325.105 359.31" stroke="#245846" stroke-width="5" stroke-linecap="round"/>
<path d="M155.743 275.919L387.863 275.919" stroke="#245846" stroke-width="5" stroke-linecap="round"/>
<path d="M163.481 318.904L376.687 318.904" stroke="#245846" stroke-width="5" stroke-linecap="round"/>
<path d="M180.675 359.311C163.481 359.311 155.743 380.803 170.358 391.12H367.23" stroke="#245846" stroke-width="12" stroke-linecap="round" stroke-linejoin="round"/>
<path d="M199.588 447C214.307 447 226.239 435.068 226.239 420.349C226.239 405.63 214.307 393.698 199.588 393.698C184.869 393.698 172.937 405.63 172.937 420.349C172.937 435.068 184.869 447 199.588 447Z" fill="#9FC985" stroke="#245846" stroke-width="12"/>
<path d="M199.588 430.666C205.286 430.666 209.905 426.047 209.905 420.35C209.905 414.652 205.286 410.033 199.588 410.033C193.891 410.033 189.272 414.652 189.272 420.35C189.272 426.047 193.891 430.666 199.588 430.666Z" fill="#245846"/>
<path d="M329.403 447C344.122 447 356.054 435.068 356.054 420.349C356.054 405.63 344.122 393.698 329.403 393.698C314.684 393.698 302.752 405.63 302.752 420.349C302.752 435.068 314.684 447 329.403 447Z" fill="#9FC985" stroke="#245846" stroke-width="12"/>
<path d="M329.403 430.666C335.101 430.666 339.72 426.047 339.72 420.35C339.72 414.652 335.101 410.033 329.403 410.033C323.706 410.033 319.087 414.652 319.087 420.35C319.087 426.047 323.706 430.666 329.403 430.666Z" fill="#245846"/>
</g>
<defs>
<clipPath id="clip0_130_7">
<rect width="512" height="512" rx="256" fill="white"/>
</clipPath>
</defs>
</svg>
