<svg width="50" height="50" viewBox="0 0 50 50" fill="none" xmlns="http://www.w3.org/2000/svg">
<path d="M25 50C38.8071 50 50 38.8071 50 25C50 11.1929 38.8071 0 25 0C11.1929 0 0 11.1929 0 25C0 38.8071 11.1929 50 25 50Z" fill="#DDEEDC"/>
<path d="M9.21094 14.4736H14.4741L18.4215 31.5789H34.2109L38.1583 19.7368H17.1057" stroke="#2F5D50" stroke-width="2.2" stroke-linecap="round" stroke-linejoin="round"/>
<path d="M19.7385 39.7367C21.3372 39.7367 22.6332 38.4407 22.6332 36.842C22.6332 35.2433 21.3372 33.9473 19.7385 33.9473C18.1398 33.9473 16.8438 35.2433 16.8438 36.842C16.8438 38.4407 18.1398 39.7367 19.7385 39.7367Z" fill="#2F5D50"/>
<path d="M32.8947 39.7367C34.4935 39.7367 35.7895 38.4407 35.7895 36.842C35.7895 35.2433 34.4935 33.9473 32.8947 33.9473C31.296 33.9473 30 35.2433 30 36.842C30 38.4407 31.296 39.7367 32.8947 39.7367Z" fill="#2F5D50"/>
</svg>
