<svg width="30" height="25" viewBox="0 0 30 25" fill="none" xmlns="http://www.w3.org/2000/svg">
<path d="M1.5 1.5H7.5L10.5 16.8191H25.5L28.5 6.60638H9.5" stroke="white" stroke-width="3" stroke-linecap="round" stroke-linejoin="round"/>
<path d="M12 24.9892C13.3807 24.9892 14.5 23.8461 14.5 22.436C14.5 21.0259 13.3807 19.8828 12 19.8828C10.6193 19.8828 9.5 21.0259 9.5 22.436C9.5 23.8461 10.6193 24.9892 12 24.9892Z" fill="white"/>
<path d="M24 24.9892C25.3807 24.9892 26.5 23.8461 26.5 22.436C26.5 21.0259 25.3807 19.8828 24 19.8828C22.6193 19.8828 21.5 21.0259 21.5 22.436C21.5 23.8461 22.6193 24.9892 24 24.9892Z" fill="white"/>
</svg>
