<svg width="64" height="64" viewBox="0 0 64 64" fill="none" xmlns="http://www.w3.org/2000/svg">
<path d="M32 64C49.6731 64 64 49.6731 64 32C64 14.3269 49.6731 0 32 0C14.3269 0 0 14.3269 0 32C0 49.6731 14.3269 64 32 64Z" fill="#DDEEDC"/>
<path d="M20 35H44L40.8 54H23.2L20 35Z" fill="#D8C3A5" stroke="#2F5D50" stroke-width="4"/>
<path d="M32 35V13" stroke="#2F5D50" stroke-width="3" stroke-linecap="round"/>
<path d="M30.0141 22.6515C20.8287 20.5358 15.7969 15.4202 15.1152 10.6001C24.1038 9.42046 31.4549 13.7985 30.0141 22.6515Z" fill="#6FAF7A" stroke="#2F5D50" stroke-width="2"/>
<path d="M33.5171 26.5391C43.9305 23.3675 49.6713 18.1146 51.1348 12.5775C42.1849 10.2119 33.5851 16.4017 33.5171 26.5391Z" fill="#6FAF7A" stroke="#2F5D50" stroke-width="2"/>
</svg>
