<svg width="45" height="45" viewBox="0 0 45 45" fill="none" xmlns="http://www.w3.org/2000/svg">
<path d="M22.5 45C34.9264 45 45 34.9264 45 22.5C45 10.0736 34.9264 0 22.5 0C10.0736 0 0 10.0736 0 22.5C0 34.9264 10.0736 45 22.5 45Z" fill="#CBE8CE"/>
<path d="M3.37598 20.25C3.37598 13.5 7.87598 9 13.501 9C16.876 9 20.251 11.25 22.501 14.625C24.751 11.25 28.126 9 31.501 9C37.126 9 41.626 13.5 41.626 20.25C41.626 30.375 22.501 40.5 22.501 40.5C22.501 40.5 3.37598 30.375 3.37598 20.25Z" fill="#2F5D50"/>
</svg>
