<svg width="260" height="260" viewBox="0 0 260 260" fill="none" xmlns="http://www.w3.org/2000/svg">
<path d="M130 243.75C192.822 243.75 243.75 192.822 243.75 130C243.75 67.1776 192.822 16.25 130 16.25C67.1776 16.25 16.25 67.1776 16.25 130C16.25 192.822 67.1776 243.75 130 243.75Z" fill="#DDEEDC"/>
<path d="M188.906 85.3125C200.125 85.3125 209.219 76.2183 209.219 65C209.219 53.7817 200.125 44.6875 188.906 44.6875C177.688 44.6875 168.594 53.7817 168.594 65C168.594 76.2183 177.688 85.3125 188.906 85.3125Z" fill="#F8F5EF" stroke="#2F5D50" stroke-width="7"/>
<path d="M188.906 25.3906V12.1875M188.906 117.812V104.609M228.516 65H241.719M136.094 65H149.297M217.344 36.5625L227.5 26.4062M150.312 103.594L160.469 93.4375M217.344 93.4375L227.5 103.594M150.312 26.4062L160.469 36.5625" stroke="#6FAF7A" stroke-width="7" stroke-linecap="round"/>
<path d="M69.0625 69.0625C83.2812 89.375 91.4062 102.578 91.4062 117.812C91.4062 132.031 81.25 142.188 69.0625 142.188C56.875 142.188 46.7188 132.031 46.7188 117.812C46.7188 102.578 54.8438 89.375 69.0625 69.0625Z" fill="#F8F5EF" stroke="#2F5D50" stroke-width="7" stroke-linejoin="round"/>
<path d="M60.9375 121.875C62.9688 127.969 67.0312 132.031 73.125 132.031" stroke="#6FAF7A" stroke-width="6" stroke-linecap="round"/>
<path d="M130 160.469V73.125" stroke="#2F5D50" stroke-width="8" stroke-linecap="round"/>
<path d="M130.001 117.812C105.626 99.5312 95.4696 78.2031 100.548 56.875C125.938 61.9531 141.173 85.3125 130.001 117.812Z" fill="#6FAF7A" stroke="#2F5D50" stroke-width="7" stroke-linejoin="round"/>
<path d="M133.047 127.969C162.5 105.625 176.719 83.2812 172.657 60.9375C145.235 63.9844 124.922 92.4219 133.047 127.969Z" fill="#CDE7D0" stroke="#2F5D50" stroke-width="7" stroke-linejoin="round"/>
<path d="M128.984 146.25C102.577 127.969 92.4211 108.672 97.4992 90.3906C122.89 95.4688 138.124 117.812 128.984 146.25Z" fill="#CDE7D0" stroke="#2F5D50" stroke-width="7" stroke-linejoin="round"/>
<path d="M161.484 156.406H98.5156C93.4674 156.406 89.375 160.499 89.375 165.547V169.609C89.375 174.658 93.4674 178.75 98.5156 178.75H161.484C166.533 178.75 170.625 174.658 170.625 169.609V165.547C170.625 160.499 166.533 156.406 161.484 156.406Z" fill="#F8F5EF" stroke="#2F5D50" stroke-width="7"/>
<path d="M97.5 178.75H162.5L153.359 221.406C151.328 231.562 144.219 237.656 134.062 237.656H125.938C115.781 237.656 108.672 231.562 106.641 221.406L97.5 178.75Z" fill="#D8C3A5" stroke="#2F5D50" stroke-width="7" stroke-linejoin="round"/>
<path d="M191.953 223.438C208.781 223.438 222.422 209.796 222.422 192.969C222.422 176.141 208.781 162.5 191.953 162.5C175.126 162.5 161.484 176.141 161.484 192.969C161.484 209.796 175.126 223.438 191.953 223.438Z" fill="#F8F5EF" stroke="#2F5D50" stroke-width="7"/>
<path d="M178.75 192.969L188.906 203.125L207.188 182.812" stroke="#2F5D50" stroke-width="8" stroke-linecap="round" stroke-linejoin="round"/>
</svg>
