<svg width="266" height="188" viewBox="0 0 266 188" fill="none" xmlns="http://www.w3.org/2000/svg">
<path opacity="0.55" d="M3.28027 36.5994C57.9929 4.41549 114.315 20.5074 138.453 76.8293C75.6941 104.186 25.809 81.6569 3.28027 36.5994Z" fill="#6FAF7A" stroke="#2F5D50" stroke-width="5"/>
<path opacity="0.82" d="M144.891 1.19665C210.868 -8.45852 260.753 41.4265 265.58 110.622C189.948 113.84 151.327 65.5645 144.891 1.19665Z" fill="#2F5D50"/>
<path opacity="0.55" d="M96.6133 123.496C162.59 83.2657 228.567 100.967 257.533 163.725C186.728 205.564 123.97 181.427 96.6133 123.496Z" fill="#6FAF7A" stroke="#2F5D50" stroke-width="5"/>
<path d="M26.1309 41.8867C69.8451 53.3153 100.809 62.4581 128.131 73.8867" stroke="#2F5D50" stroke-width="4" stroke-linecap="round"/>
<path opacity="0.8" d="M156.131 12.8867C185.212 44.1756 218.172 75.4645 251.131 100.887" stroke="#F8F5EF" stroke-width="4" stroke-linecap="round"/>
</svg>
