<svg width="41" height="61" viewBox="0 0 41 61" fill="none" xmlns="http://www.w3.org/2000/svg">
<path d="M31.6654 29.7266H8.5923C4.95147 29.7266 2 32.5912 2 36.125V52.121C2 55.6547 4.95147 58.5194 8.5923 58.5194H31.6654C35.3062 58.5194 38.2577 55.6547 38.2577 52.121V36.125C38.2577 32.5912 35.3062 29.7266 31.6654 29.7266Z" fill="#DDEEDC" stroke="#2F5D50" stroke-width="4"/>
<path d="M3.66455 29.7264V18.9754C3.66455 7.65846 10.7485 2 20.1938 2C29.639 2 36.723 8.2243 36.723 18.9754V29.7264" stroke="#2F5D50" stroke-width="4" stroke-linecap="round"/>
<path d="M20.0425 47.5802C22.1403 47.5802 23.8409 45.8796 23.8409 43.7818C23.8409 41.684 22.1403 39.9834 20.0425 39.9834C17.9447 39.9834 16.2441 41.684 16.2441 43.7818C16.2441 45.8796 17.9447 47.5802 20.0425 47.5802Z" fill="#2F5D50"/>
<path d="M20.1274 47.8555V52.1211" stroke="#2F5D50" stroke-width="4" stroke-linecap="round"/>
</svg>
