<?xml version='1.0' encoding='UTF-8'?>
<svg xmlns="http://www.w3.org/2000/svg" width="260" height="90" viewBox="60 60 1000 300" fill="none">
<path d="M235 360C317.843 360 385 292.843 385 210C385 127.157 317.843 60 235 60C152.157 60 85 127.157 85 210C85 292.843 152.157 360 235 360Z" fill="#DDEEDC"/>
<path opacity="0.12" d="M235 338C280.287 338 317 329.941 317 320C317 310.059 280.287 302 235 302C189.713 302 153 310.059 153 320C153 329.941 189.713 338 235 338Z" fill="#2F5D50"/>
<path d="M175 245H295L281 320C279 331 270 339 259 339H211C200 339 191 331 189 320L175 245Z" fill="#D8C3A5" stroke="#2F5D50" stroke-width="8" stroke-linejoin="round"/>
<path d="M290 223H180C170.059 223 162 231.059 162 241C162 250.941 170.059 259 180 259H290C299.941 259 308 250.941 308 241C308 231.059 299.941 223 290 223Z" fill="#F8F5EF" stroke="#2F5D50" stroke-width="8"/>
<path d="M179 245.713C198 235.713 223 234.713 243 240.713C260 245.713 277 246.713 291 238.713" stroke="#A78E76" stroke-width="8" stroke-linecap="round"/>
<path d="M235 223C233 195 237 170 248 146C257 127 270 111 288 97" stroke="#2F5D50" stroke-width="9" stroke-linecap="round"/>
<path d="M235 223C230 196 218 175 199 157C184 143 168 135 148 131" stroke="#2F5D50" stroke-width="8" stroke-linecap="round"/>
<path d="M236 222C246 198 261 182 285 172" stroke="#2F5D50" stroke-width="7" stroke-linecap="round"/>
<path d="M147.833 129.435C167.163 98.7855 202.633 92.3127 230.678 113.132C211.349 143.781 177.243 150.625 147.833 129.435Z" fill="#6FAF7A" stroke="#2F5D50" stroke-width="7" stroke-linejoin="round"/>
<path opacity="0.55" d="M157.916 127.072C178.025 121.449 198.359 118.051 220.917 114.428" stroke="#2F5D50" stroke-width="4" stroke-linecap="round"/>
<path d="M288 95.293C323 88.293 350 110.293 352 147.293C314 154.293 289 131.293 288 95.293Z" fill="#2F5D50" stroke="#2F5D50" stroke-width="7" stroke-linejoin="round"/>
<path opacity="0.65" d="M297 101C314 114 328 128 344 142" stroke="#DDEEDC" stroke-width="4" stroke-linecap="round"/>
<path d="M285 171.005C314 151.005 349 159.005 368 189.005C338 211.005 304 203.005 285 171.005Z" fill="#6FAF7A" stroke="#2F5D50" stroke-width="7" stroke-linejoin="round"/>
<path opacity="0.5" d="M297 172.005C318 179.005 337 183.005 360 188.005" stroke="#2F5D50" stroke-width="4" stroke-linecap="round"/>
<path d="M430.16 182.864C425.984 182.864 422.12 182.408 418.568 181.496C415.064 180.536 412.088 179.264 409.64 177.68L413.312 168.896C415.568 170.384 418.136 171.512 421.016 172.28C423.896 173.048 426.968 173.432 430.232 173.432C434.36 173.432 437.384 172.832 439.304 171.632C441.272 170.432 442.256 168.8 442.256 166.736C442.256 165.392 441.896 164.264 441.176 163.352C440.456 162.44 439.4 161.744 438.008 161.264C436.664 160.784 435.032 160.544 433.112 160.544H420.08V151.76H432.392C434.984 151.76 436.904 151.304 438.152 150.392C439.448 149.48 440.096 148.184 440.096 146.504C440.096 144.968 439.64 143.744 438.728 142.832C437.864 141.92 436.688 141.272 435.2 140.888C433.712 140.456 432.056 140.24 430.232 140.24C428.504 140.24 426.704 140.408 424.832 140.744C422.96 141.032 421.184 141.464 419.504 142.04C417.824 142.568 416.312 143.192 414.968 143.912L411.728 134.984C414.272 133.64 417.152 132.608 420.368 131.888C423.584 131.12 426.848 130.736 430.16 130.736C432.944 130.736 435.632 131.024 438.224 131.6C440.816 132.128 443.144 132.968 445.208 134.12C447.272 135.272 448.904 136.736 450.104 138.512C451.304 140.24 451.904 142.328 451.904 144.776C451.904 146.984 451.376 149.048 450.32 150.968C449.264 152.888 447.728 154.448 445.712 155.648C443.696 156.848 441.272 157.448 438.44 157.448L438.8 154.928C441.728 154.928 444.32 155.432 446.576 156.44C448.88 157.448 450.68 158.912 451.976 160.832C453.32 162.704 453.992 164.96 453.992 167.6C453.992 170.576 453.056 173.216 451.184 175.52C449.36 177.824 446.672 179.624 443.12 180.92C439.616 182.216 435.296 182.864 430.16 182.864ZM481.305 182.576C476.889 182.576 473.001 181.712 469.641 179.984C466.329 178.256 463.761 175.904 461.937 172.928C460.113 169.904 459.201 166.472 459.201 162.632C459.201 158.744 460.089 155.312 461.865 152.336C463.689 149.312 466.161 146.96 469.281 145.28C472.401 143.552 475.929 142.688 479.865 142.688C483.657 142.688 487.065 143.504 490.089 145.136C493.161 146.72 495.585 149.024 497.361 152.048C499.137 155.024 500.025 158.6 500.025 162.776C500.025 163.208 500.001 163.712 499.953 164.288C499.905 164.816 499.857 165.32 499.809 165.8H468.345V159.248H493.905L489.585 161.192C489.585 159.176 489.177 157.424 488.361 155.936C487.545 154.448 486.417 153.296 484.977 152.48C483.537 151.616 481.857 151.184 479.937 151.184C478.017 151.184 476.313 151.616 474.825 152.48C473.385 153.296 472.257 154.472 471.441 156.008C470.625 157.496 470.217 159.272 470.217 161.336V163.064C470.217 165.176 470.673 167.048 471.585 168.68C472.545 170.264 473.865 171.488 475.545 172.352C477.273 173.168 479.289 173.576 481.593 173.576C483.657 173.576 485.457 173.264 486.993 172.64C488.577 172.016 490.017 171.08 491.313 169.832L497.289 176.312C495.513 178.328 493.281 179.888 490.593 180.992C487.905 182.048 484.809 182.576 481.305 182.576ZM509.219 182.792C508.355 182.792 507.443 182.72 506.483 182.576C505.523 182.432 504.491 182.216 503.387 181.928L503.963 172.712C504.251 172.76 504.539 172.808 504.827 172.856C505.115 172.856 505.379 172.856 505.619 172.856C506.963 172.856 508.019 172.472 508.787 171.704C509.555 170.936 510.131 169.904 510.515 168.608C510.899 167.264 511.163 165.752 511.307 164.072C511.499 162.392 511.643 160.64 511.739 158.816L512.315 143.264H545.435V182H534.203V149.744L536.723 152.48H519.731L522.107 149.6L521.603 159.32C521.459 162.776 521.171 165.944 520.739 168.824C520.355 171.704 519.707 174.2 518.795 176.312C517.883 178.376 516.659 179.984 515.123 181.136C513.587 182.24 511.619 182.792 509.219 182.792ZM575.172 182.576C570.756 182.576 566.868 181.712 563.508 179.984C560.196 178.256 557.628 175.904 555.804 172.928C553.98 169.904 553.068 166.472 553.068 162.632C553.068 158.744 553.956 155.312 555.732 152.336C557.556 149.312 560.028 146.96 563.148 145.28C566.268 143.552 569.796 142.688 573.732 142.688C577.524 142.688 580.932 143.504 583.956 145.136C587.028 146.72 589.452 149.024 591.228 152.048C593.004 155.024 593.892 158.6 593.892 162.776C593.892 163.208 593.868 163.712 593.82 164.288C593.772 164.816 593.724 165.32 593.676 165.8H562.212V159.248H587.772L583.452 161.192C583.452 159.176 583.044 157.424 582.228 155.936C581.412 154.448 580.284 153.296 578.844 152.48C577.404 151.616 575.724 151.184 573.804 151.184C571.884 151.184 570.18 151.616 568.692 152.48C567.252 153.296 566.124 154.472 565.308 156.008C564.492 157.496 564.084 159.272 564.084 161.336V163.064C564.084 165.176 564.54 167.048 565.452 168.68C566.412 170.264 567.732 171.488 569.412 172.352C571.14 173.168 573.156 173.576 575.46 173.576C577.524 173.576 579.324 173.264 580.86 172.64C582.444 172.016 583.884 171.08 585.18 169.832L591.156 176.312C589.38 178.328 587.148 179.888 584.46 180.992C581.772 182.048 578.676 182.576 575.172 182.576ZM580.788 137.936C579.396 137.936 578.22 137.48 577.26 136.568C576.3 135.656 575.82 134.456 575.82 132.968C575.82 131.48 576.3 130.28 577.26 129.368C578.22 128.456 579.396 128 580.788 128C582.18 128 583.356 128.456 584.316 129.368C585.324 130.28 585.828 131.48 585.828 132.968C585.828 134.456 585.324 135.656 584.316 136.568C583.356 137.48 582.18 137.936 580.788 137.936ZM566.244 137.936C564.852 137.936 563.652 137.48 562.644 136.568C561.684 135.656 561.204 134.456 561.204 132.968C561.204 131.48 561.684 130.28 562.644 129.368C563.652 128.456 564.852 128 566.244 128C567.636 128 568.812 128.456 569.772 129.368C570.732 130.28 571.212 131.48 571.212 132.968C571.212 134.456 570.732 135.656 569.772 136.568C568.812 137.48 567.636 137.936 566.244 137.936ZM602.502 182V143.264H613.662V158.384H630.51V143.264H641.742V182H630.51V167.528H613.662V182H602.502ZM671.358 182.072L652.494 182V143.264H663.654V155.648H672.87C677.958 155.696 681.774 156.848 684.318 159.104C686.91 161.312 688.206 164.456 688.206 168.536C688.206 172.808 686.742 176.144 683.814 178.544C680.886 180.896 676.734 182.072 671.358 182.072ZM670.35 174.08C672.51 174.128 674.166 173.672 675.318 172.712C676.47 171.752 677.046 170.312 677.046 168.392C677.046 166.472 676.47 165.104 675.318 164.288C674.166 163.424 672.51 162.968 670.35 162.92L663.654 162.848V174.08H670.35ZM692.382 182V143.264H703.542V182H692.382ZM714.369 182V143.264H725.529V166.304L744.393 143.264H754.689V182H743.529V158.96L724.737 182H714.369ZM733.809 139.088C729.585 139.088 726.417 138.176 724.305 136.352C722.193 134.48 721.113 131.672 721.065 127.928H728.409C728.457 129.56 728.913 130.856 729.777 131.816C730.641 132.776 731.961 133.256 733.737 133.256C735.465 133.256 736.785 132.776 737.697 131.816C738.657 130.856 739.137 129.56 739.137 127.928H746.625C746.625 131.672 745.545 134.48 743.385 136.352C741.225 138.176 738.033 139.088 733.809 139.088ZM791.133 196.544C789.117 196.544 787.125 196.232 785.157 195.608C783.189 194.984 781.581 194.12 780.333 193.016L784.437 185.024C785.301 185.792 786.285 186.392 787.389 186.824C788.541 187.256 789.669 187.472 790.773 187.472C792.357 187.472 793.605 187.088 794.517 186.32C795.477 185.6 796.341 184.376 797.109 182.648L799.125 177.896L799.989 176.672L813.885 143.264H824.685L807.189 184.376C805.941 187.496 804.501 189.944 802.869 191.72C801.285 193.496 799.509 194.744 797.541 195.464C795.621 196.184 793.485 196.544 791.133 196.544ZM797.757 183.512L780.477 143.264H792.069L805.461 175.664L797.757 183.512ZM830.103 182V143.264H861.135V152.48H838.743L841.263 150.032V182H830.103ZM883.614 182.576C879.486 182.576 875.814 181.712 872.598 179.984C869.43 178.256 866.91 175.904 865.038 172.928C863.214 169.904 862.302 166.472 862.302 162.632C862.302 158.744 863.214 155.312 865.038 152.336C866.91 149.312 869.43 146.96 872.598 145.28C875.814 143.552 879.486 142.688 883.614 142.688C887.694 142.688 891.342 143.552 894.558 145.28C897.774 146.96 900.294 149.288 902.118 152.264C903.942 155.24 904.854 158.696 904.854 162.632C904.854 166.472 903.942 169.904 902.118 172.928C900.294 175.904 897.774 178.256 894.558 179.984C891.342 181.712 887.694 182.576 883.614 182.576ZM883.614 173.36C885.486 173.36 887.166 172.928 888.654 172.064C890.142 171.2 891.318 169.976 892.182 168.392C893.046 166.76 893.478 164.84 893.478 162.632C893.478 160.376 893.046 158.456 892.182 156.872C891.318 155.288 890.142 154.064 888.654 153.2C887.166 152.336 885.486 151.904 883.614 151.904C881.742 151.904 880.062 152.336 878.574 153.2C877.086 154.064 875.886 155.288 874.974 156.872C874.11 158.456 873.678 160.376 873.678 162.632C873.678 164.84 874.11 166.76 874.974 168.392C875.886 169.976 877.086 171.2 878.574 172.064C880.062 172.928 881.742 173.36 883.614 173.36ZM912.953 182.792C912.089 182.792 911.177 182.72 910.217 182.576C909.257 182.432 908.225 182.216 907.121 181.928L907.697 172.712C907.985 172.76 908.273 172.808 908.561 172.856C908.849 172.856 909.113 172.856 909.353 172.856C910.697 172.856 911.753 172.472 912.521 171.704C913.289 170.936 913.865 169.904 914.249 168.608C914.633 167.264 914.897 165.752 915.041 164.072C915.233 162.392 915.377 160.64 915.473 158.816L916.049 143.264H949.169V182H937.937V149.744L940.457 152.48H923.465L925.841 149.6L925.337 159.32C925.193 162.776 924.905 165.944 924.473 168.824C924.089 171.704 923.441 174.2 922.529 176.312C921.617 178.376 920.393 179.984 918.857 181.136C917.321 182.24 915.353 182.792 912.953 182.792ZM978.114 182.576C973.986 182.576 970.314 181.712 967.098 179.984C963.93 178.256 961.41 175.904 959.538 172.928C957.714 169.904 956.802 166.472 956.802 162.632C956.802 158.744 957.714 155.312 959.538 152.336C961.41 149.312 963.93 146.96 967.098 145.28C970.314 143.552 973.986 142.688 978.114 142.688C982.194 142.688 985.842 143.552 989.058 145.28C992.274 146.96 994.794 149.288 996.618 152.264C998.442 155.24 999.354 158.696 999.354 162.632C999.354 166.472 998.442 169.904 996.618 172.928C994.794 175.904 992.274 178.256 989.058 179.984C985.842 181.712 982.194 182.576 978.114 182.576ZM978.114 173.36C979.986 173.36 981.666 172.928 983.154 172.064C984.642 171.2 985.818 169.976 986.682 168.392C987.546 166.76 987.978 164.84 987.978 162.632C987.978 160.376 987.546 158.456 986.682 156.872C985.818 155.288 984.642 154.064 983.154 153.2C981.666 152.336 979.986 151.904 978.114 151.904C976.242 151.904 974.562 152.336 973.074 153.2C971.586 154.064 970.386 155.288 969.474 156.872C968.61 158.456 968.178 160.376 968.178 162.632C968.178 164.84 968.61 166.76 969.474 168.392C970.386 169.976 971.586 171.2 973.074 172.064C974.562 172.928 976.242 173.36 978.114 173.36ZM1034.51 182L1021.55 163.64L1030.7 158.24L1047.76 182H1034.51ZM1007.08 182V143.264H1018.31V182H1007.08ZM1015 167.312V158.312H1028.54V167.312H1015ZM1031.78 163.928L1021.26 162.776L1034.87 143.264H1046.82L1031.78 163.928Z" fill="#2F5D50"/>
<path d="M417.54 235V214H425.4C427.18 214 428.71 214.29 429.99 214.87C431.27 215.43 432.25 216.25 432.93 217.33C433.63 218.39 433.98 219.68 433.98 221.2C433.98 222.68 433.63 223.96 432.93 225.04C432.25 226.1 431.27 226.92 429.99 227.5C428.71 228.08 427.18 228.37 425.4 228.37H418.77L419.76 227.32V235H417.54ZM419.76 227.5L418.77 226.42H425.34C427.44 226.42 429.03 225.97 430.11 225.07C431.21 224.15 431.76 222.86 431.76 221.2C431.76 219.52 431.21 218.22 430.11 217.3C429.03 216.38 427.44 215.92 425.34 215.92H418.77L419.76 214.87V227.5ZM447.64 235V231.52L447.55 230.95V225.13C447.55 223.79 447.17 222.76 446.41 222.04C445.67 221.32 444.56 220.96 443.08 220.96C442.06 220.96 441.09 221.13 440.17 221.47C439.25 221.81 438.47 222.26 437.83 222.82L436.87 221.23C437.67 220.55 438.63 220.03 439.75 219.67C440.87 219.29 442.05 219.1 443.29 219.1C445.33 219.1 446.9 219.61 448 220.63C449.12 221.63 449.68 223.16 449.68 225.22V235H447.64ZM442.21 235.15C441.03 235.15 440 234.96 439.12 234.58C438.26 234.18 437.6 233.64 437.14 232.96C436.68 232.26 436.45 231.46 436.45 230.56C436.45 229.74 436.64 229 437.02 228.34C437.42 227.66 438.06 227.12 438.94 226.72C439.84 226.3 441.04 226.09 442.54 226.09H447.97V227.68H442.6C441.08 227.68 440.02 227.95 439.42 228.49C438.84 229.03 438.55 229.7 438.55 230.5C438.55 231.4 438.9 232.12 439.6 232.66C440.3 233.2 441.28 233.47 442.54 233.47C443.74 233.47 444.77 233.2 445.63 232.66C446.51 232.1 447.15 231.3 447.55 230.26L448.03 231.73C447.63 232.77 446.93 233.6 445.93 234.22C444.95 234.84 443.71 235.15 442.21 235.15ZM461.95 235.15C460.39 235.15 458.99 234.81 457.75 234.13C456.53 233.43 455.57 232.48 454.87 231.28C454.17 230.06 453.82 228.67 453.82 227.11C453.82 225.53 454.17 224.14 454.87 222.94C455.57 221.74 456.53 220.8 457.75 220.12C458.99 219.44 460.39 219.1 461.95 219.1C463.29 219.1 464.5 219.36 465.58 219.88C466.66 220.4 467.51 221.18 468.13 222.22L466.54 223.3C466 222.5 465.33 221.91 464.53 221.53C463.73 221.15 462.86 220.96 461.92 220.96C460.8 220.96 459.79 221.22 458.89 221.74C457.99 222.24 457.28 222.95 456.76 223.87C456.24 224.79 455.98 225.87 455.98 227.11C455.98 228.35 456.24 229.43 456.76 230.35C457.28 231.27 457.99 231.99 458.89 232.51C459.79 233.01 460.8 233.26 461.92 233.26C462.86 233.26 463.73 233.07 464.53 232.69C465.33 232.31 466 231.73 466.54 230.95L468.13 232.03C467.51 233.05 466.66 233.83 465.58 234.37C464.5 234.89 463.29 235.15 461.95 235.15ZM474.962 235V220.54L475.502 221.11H468.992V219.25H483.062V221.11H476.552L477.092 220.54V235H474.962ZM492.159 235.15C490.519 235.15 489.079 234.81 487.839 234.13C486.599 233.43 485.629 232.48 484.929 231.28C484.229 230.06 483.879 228.67 483.879 227.11C483.879 225.55 484.209 224.17 484.869 222.97C485.549 221.77 486.469 220.83 487.629 220.15C488.809 219.45 490.129 219.1 491.589 219.1C493.069 219.1 494.379 219.44 495.519 220.12C496.679 220.78 497.589 221.72 498.249 222.94C498.909 224.14 499.239 225.53 499.239 227.11C499.239 227.21 499.229 227.32 499.209 227.44C499.209 227.54 499.209 227.65 499.209 227.77H485.499V226.18H498.069L497.229 226.81C497.229 225.67 496.979 224.66 496.479 223.78C495.999 222.88 495.339 222.18 494.499 221.68C493.659 221.18 492.689 220.93 491.589 220.93C490.509 220.93 489.539 221.18 488.679 221.68C487.819 222.18 487.149 222.88 486.669 223.78C486.189 224.68 485.949 225.71 485.949 226.87V227.2C485.949 228.4 486.209 229.46 486.729 230.38C487.269 231.28 488.009 231.99 488.949 232.51C489.909 233.01 490.999 233.26 492.219 233.26C493.179 233.26 494.069 233.09 494.889 232.75C495.729 232.41 496.449 231.89 497.049 231.19L498.249 232.57C497.549 233.41 496.669 234.05 495.609 234.49C494.569 234.93 493.419 235.15 492.159 235.15ZM503.954 235V219.25H506.084V226.21H516.014V219.25H518.144V235H516.014V228.04H506.084V235H503.954ZM524.198 235V219.25H526.328V231.76L536.858 219.25H538.748V235H536.618V222.46L526.118 235H524.198ZM555.022 235V229.33L555.412 229.78H550.072C548.052 229.78 546.472 229.34 545.332 228.46C544.192 227.58 543.622 226.3 543.622 224.62C543.622 222.82 544.232 221.48 545.452 220.6C546.672 219.7 548.302 219.25 550.342 219.25H556.972V235H555.022ZM543.502 235L547.822 228.94H550.042L545.812 235H543.502ZM555.022 228.7V220.48L555.412 221.11H550.402C548.942 221.11 547.802 221.39 546.982 221.95C546.182 222.51 545.782 223.42 545.782 224.68C545.782 227.02 547.272 228.19 550.252 228.19H555.412L555.022 228.7ZM561.696 239.38L563.016 233.83L563.256 235.12C562.796 235.12 562.406 234.97 562.086 234.67C561.786 234.37 561.636 233.98 561.636 233.5C561.636 233.02 561.786 232.63 562.086 232.33C562.406 232.03 562.786 231.88 563.226 231.88C563.686 231.88 564.056 232.04 564.336 232.36C564.636 232.68 564.786 233.06 564.786 233.5C564.786 233.66 564.776 233.82 564.756 233.98C564.736 234.14 564.696 234.32 564.636 234.52C564.576 234.72 564.496 234.96 564.396 235.24L563.136 239.38H561.696ZM588.805 235L582.325 227.2L584.095 226.15L591.325 235H588.805ZM577.255 235V219.25H579.385V235H577.255ZM578.725 227.98V226.15H583.795V227.98H578.725ZM584.275 227.35L582.295 227.05L588.565 219.25H590.875L584.275 227.35ZM600.668 235.15C599.148 235.15 597.778 234.81 596.558 234.13C595.358 233.43 594.408 232.48 593.708 231.28C593.008 230.06 592.658 228.67 592.658 227.11C592.658 225.53 593.008 224.14 593.708 222.94C594.408 221.74 595.358 220.8 596.558 220.12C597.758 219.44 599.128 219.1 600.668 219.1C602.228 219.1 603.608 219.44 604.808 220.12C606.028 220.8 606.978 221.74 607.658 222.94C608.358 224.14 608.708 225.53 608.708 227.11C608.708 228.67 608.358 230.06 607.658 231.28C606.978 232.48 606.028 233.43 604.808 234.13C603.588 234.81 602.208 235.15 600.668 235.15ZM600.668 233.26C601.808 233.26 602.818 233.01 603.698 232.51C604.578 231.99 605.268 231.27 605.768 230.35C606.288 229.41 606.548 228.33 606.548 227.11C606.548 225.87 606.288 224.79 605.768 223.87C605.268 222.95 604.578 222.24 603.698 221.74C602.818 221.22 601.818 220.96 600.698 220.96C599.578 220.96 598.578 221.22 597.698 221.74C596.818 222.24 596.118 222.95 595.598 223.87C595.078 224.79 594.818 225.87 594.818 227.11C594.818 228.33 595.078 229.41 595.598 230.35C596.118 231.27 596.818 231.99 597.698 232.51C598.578 233.01 599.568 233.26 600.668 233.26ZM615.675 235V220.54L616.215 221.11H609.705V219.25H623.775V221.11H617.265L617.805 220.54V235H615.675ZM632.602 235.15C631.082 235.15 629.712 234.81 628.492 234.13C627.292 233.43 626.342 232.48 625.642 231.28C624.942 230.06 624.592 228.67 624.592 227.11C624.592 225.53 624.942 224.14 625.642 222.94C626.342 221.74 627.292 220.8 628.492 220.12C629.692 219.44 631.062 219.1 632.602 219.1C634.162 219.1 635.542 219.44 636.742 220.12C637.962 220.8 638.912 221.74 639.592 222.94C640.292 224.14 640.642 225.53 640.642 227.11C640.642 228.67 640.292 230.06 639.592 231.28C638.912 232.48 637.962 233.43 636.742 234.13C635.522 234.81 634.142 235.15 632.602 235.15ZM632.602 233.26C633.742 233.26 634.752 233.01 635.632 232.51C636.512 231.99 637.202 231.27 637.702 230.35C638.222 229.41 638.482 228.33 638.482 227.11C638.482 225.87 638.222 224.79 637.702 223.87C637.202 222.95 636.512 222.24 635.632 221.74C634.752 221.22 633.752 220.96 632.632 220.96C631.512 220.96 630.512 221.22 629.632 221.74C628.752 222.24 628.052 222.95 627.532 223.87C627.012 224.79 626.752 225.87 626.752 227.11C626.752 228.33 627.012 229.41 627.532 230.35C628.052 231.27 628.752 231.99 629.632 232.51C630.512 233.01 631.502 233.26 632.602 233.26ZM653.324 235.15C651.964 235.15 650.734 234.84 649.634 234.22C648.534 233.58 647.654 232.67 646.994 231.49C646.354 230.29 646.034 228.83 646.034 227.11C646.034 225.39 646.354 223.94 646.994 222.76C647.634 221.56 648.504 220.65 649.604 220.03C650.704 219.41 651.944 219.1 653.324 219.1C654.824 219.1 656.164 219.44 657.344 220.12C658.544 220.78 659.484 221.72 660.164 222.94C660.844 224.14 661.184 225.53 661.184 227.11C661.184 228.71 660.844 230.11 660.164 231.31C659.484 232.51 658.544 233.45 657.344 234.13C656.164 234.81 654.824 235.15 653.324 235.15ZM645.194 240.82V219.25H647.234V223.99L647.024 227.14L647.324 230.32V240.82H645.194ZM653.174 233.26C654.294 233.26 655.294 233.01 656.174 232.51C657.054 231.99 657.754 231.27 658.274 230.35C658.794 229.41 659.054 228.33 659.054 227.11C659.054 225.89 658.794 224.82 658.274 223.9C657.754 222.98 657.054 222.26 656.174 221.74C655.294 221.22 654.294 220.96 653.174 220.96C652.054 220.96 651.044 221.22 650.144 221.74C649.264 222.26 648.564 222.98 648.044 223.9C647.544 224.82 647.294 225.89 647.294 227.11C647.294 228.33 647.544 229.41 648.044 230.35C648.564 231.27 649.264 231.99 650.144 232.51C651.044 233.01 652.054 233.26 653.174 233.26ZM672 235.03L665.76 235V219.25H667.89V224.74L672.39 224.8C674.37 224.82 675.88 225.26 676.92 226.12C677.96 226.98 678.48 228.22 678.48 229.84C678.48 231.52 677.92 232.81 676.8 233.71C675.68 234.61 674.08 235.05 672 235.03ZM671.85 233.41C673.33 233.43 674.44 233.14 675.18 232.54C675.94 231.92 676.32 231.02 676.32 229.84C676.32 228.66 675.95 227.8 675.21 227.26C674.47 226.7 673.35 226.41 671.85 226.39L667.89 226.33V233.35L671.85 233.41ZM681.12 235V219.25H683.25V235H681.12ZM696.065 235.15C694.425 235.15 692.985 234.81 691.745 234.13C690.505 233.43 689.535 232.48 688.835 231.28C688.135 230.06 687.785 228.67 687.785 227.11C687.785 225.55 688.115 224.17 688.775 222.97C689.455 221.77 690.375 220.83 691.535 220.15C692.715 219.45 694.035 219.1 695.495 219.1C696.975 219.1 698.285 219.44 699.425 220.12C700.585 220.78 701.495 221.72 702.155 222.94C702.815 224.14 703.145 225.53 703.145 227.11C703.145 227.21 703.135 227.32 703.115 227.44C703.115 227.54 703.115 227.65 703.115 227.77H689.405V226.18H701.975L701.135 226.81C701.135 225.67 700.885 224.66 700.385 223.78C699.905 222.88 699.245 222.18 698.405 221.68C697.565 221.18 696.595 220.93 695.495 220.93C694.415 220.93 693.445 221.18 692.585 221.68C691.725 222.18 691.055 222.88 690.575 223.78C690.095 224.68 689.855 225.71 689.855 226.87V227.2C689.855 228.4 690.115 229.46 690.635 230.38C691.175 231.28 691.915 231.99 692.855 232.51C693.815 233.01 694.905 233.26 696.125 233.26C697.085 233.26 697.975 233.09 698.795 232.75C699.635 232.41 700.355 231.89 700.955 231.19L702.155 232.57C701.455 233.41 700.575 234.05 699.515 234.49C698.475 234.93 697.325 235.15 696.065 235.15ZM715.742 233.53L713.612 233.14C714.232 233.16 714.742 232.94 715.142 232.48C715.542 232 715.852 231.35 716.072 230.53C716.292 229.71 716.452 228.78 716.552 227.74C716.652 226.68 716.732 225.6 716.792 224.5L717.002 219.25H728.642V233.98H726.512V221.11H718.922L718.742 224.62C718.702 225.68 718.632 226.72 718.532 227.74C718.452 228.76 718.302 229.7 718.082 230.56C717.882 231.4 717.592 232.09 717.212 232.63C716.832 233.15 716.342 233.45 715.742 233.53ZM712.952 238.81V233.14H731.102V238.81H729.092V235H714.962V238.81H712.952ZM742.003 235.15C740.363 235.15 738.923 234.81 737.683 234.13C736.443 233.43 735.473 232.48 734.773 231.28C734.073 230.06 733.723 228.67 733.723 227.11C733.723 225.55 734.053 224.17 734.713 222.97C735.393 221.77 736.313 220.83 737.473 220.15C738.653 219.45 739.973 219.1 741.433 219.1C742.913 219.1 744.223 219.44 745.363 220.12C746.523 220.78 747.433 221.72 748.093 222.94C748.753 224.14 749.083 225.53 749.083 227.11C749.083 227.21 749.073 227.32 749.053 227.44C749.053 227.54 749.053 227.65 749.053 227.77H735.343V226.18H747.913L747.073 226.81C747.073 225.67 746.823 224.66 746.323 223.78C745.843 222.88 745.183 222.18 744.343 221.68C743.503 221.18 742.533 220.93 741.433 220.93C740.353 220.93 739.383 221.18 738.523 221.68C737.663 222.18 736.993 222.88 736.513 223.78C736.033 224.68 735.793 225.71 735.793 226.87V227.2C735.793 228.4 736.053 229.46 736.573 230.38C737.113 231.28 737.853 231.99 738.793 232.51C739.753 233.01 740.843 233.26 742.063 233.26C743.023 233.26 743.913 233.09 744.733 232.75C745.573 232.41 746.293 231.89 746.893 231.19L748.093 232.57C747.393 233.41 746.513 234.05 745.453 234.49C744.413 234.93 743.263 235.15 742.003 235.15ZM752.125 235.18C751.885 235.18 751.635 235.16 751.375 235.12C751.135 235.08 750.875 235.03 750.595 234.97L750.745 233.14C750.885 233.16 751.015 233.19 751.135 233.23C751.275 233.25 751.395 233.26 751.495 233.26C752.135 233.26 752.645 233.02 753.025 232.54C753.425 232.06 753.725 231.42 753.925 230.62C754.125 229.82 754.265 228.92 754.345 227.92C754.425 226.9 754.495 225.88 754.555 224.86L754.825 219.25H766.375V235H764.245V220.48L764.785 221.11H756.205L756.715 220.45L756.475 225.01C756.415 226.37 756.305 227.67 756.145 228.91C756.005 230.15 755.775 231.24 755.455 232.18C755.155 233.12 754.735 233.86 754.195 234.4C753.655 234.92 752.965 235.18 752.125 235.18ZM782.21 235V231.52L782.12 230.95V225.13C782.12 223.79 781.74 222.76 780.98 222.04C780.24 221.32 779.13 220.96 777.65 220.96C776.63 220.96 775.66 221.13 774.74 221.47C773.82 221.81 773.04 222.26 772.4 222.82L771.44 221.23C772.24 220.55 773.2 220.03 774.32 219.67C775.44 219.29 776.62 219.1 777.86 219.1C779.9 219.1 781.47 219.61 782.57 220.63C783.69 221.63 784.25 223.16 784.25 225.22V235H782.21ZM776.78 235.15C775.6 235.15 774.57 234.96 773.69 234.58C772.83 234.18 772.17 233.64 771.71 232.96C771.25 232.26 771.02 231.46 771.02 230.56C771.02 229.74 771.21 229 771.59 228.34C771.99 227.66 772.63 227.12 773.51 226.72C774.41 226.3 775.61 226.09 777.11 226.09H782.54V227.68H777.17C775.65 227.68 774.59 227.95 773.99 228.49C773.41 229.03 773.12 229.7 773.12 230.5C773.12 231.4 773.47 232.12 774.17 232.66C774.87 233.2 775.85 233.47 777.11 233.47C778.31 233.47 779.34 233.2 780.2 232.66C781.08 232.1 781.72 231.3 782.12 230.26L782.6 231.73C782.2 232.77 781.5 233.6 780.5 234.22C779.52 234.84 778.28 235.15 776.78 235.15ZM803.481 235.15C801.981 235.15 800.631 234.81 799.431 234.13C798.251 233.43 797.321 232.48 796.641 231.28C795.961 230.06 795.621 228.67 795.621 227.11C795.621 225.53 795.961 224.14 796.641 222.94C797.321 221.74 798.251 220.8 799.431 220.12C800.631 219.44 801.981 219.1 803.481 219.1C804.981 219.1 806.321 219.44 807.501 220.12C808.681 220.8 809.611 221.74 810.291 222.94C810.971 224.14 811.311 225.53 811.311 227.11C811.311 228.67 810.971 230.06 810.291 231.28C809.611 232.48 808.681 233.43 807.501 234.13C806.321 234.81 804.981 235.15 803.481 235.15ZM789.921 235V219.25H792.051V226.03H796.851V227.98H792.051V235H789.921ZM803.481 233.29C804.581 233.29 805.561 233.03 806.421 232.51C807.281 231.99 807.961 231.27 808.461 230.35C808.961 229.41 809.211 228.33 809.211 227.11C809.211 225.87 808.961 224.79 808.461 223.87C807.961 222.95 807.281 222.24 806.421 221.74C805.561 221.22 804.581 220.96 803.481 220.96C802.401 220.96 801.421 221.22 800.541 221.74C799.681 222.24 799.001 222.95 798.501 223.87C798.001 224.79 797.751 225.87 797.751 227.11C797.751 228.33 798.001 229.41 798.501 230.35C799.001 231.27 799.681 231.99 800.541 232.51C801.421 233.03 802.401 233.29 803.481 233.29ZM818.292 235V220.54L818.832 221.11H812.322V219.25H826.392V221.11H819.882L820.422 220.54V235H818.292ZM837.353 233.53L835.223 233.14C835.843 233.16 836.353 232.94 836.753 232.48C837.153 232 837.463 231.35 837.683 230.53C837.903 229.71 838.063 228.78 838.163 227.74C838.263 226.68 838.343 225.6 838.403 224.5L838.613 219.25H850.253V233.98H848.123V221.11H840.533L840.353 224.62C840.313 225.68 840.243 226.72 840.143 227.74C840.063 228.76 839.913 229.7 839.693 230.56C839.493 231.4 839.203 232.09 838.823 232.63C838.443 233.15 837.953 233.45 837.353 233.53ZM834.563 238.81V233.14H852.713V238.81H850.703V235H836.573V238.81H834.563ZM863.344 235.15C861.824 235.15 860.454 234.81 859.234 234.13C858.034 233.43 857.084 232.48 856.384 231.28C855.684 230.06 855.334 228.67 855.334 227.11C855.334 225.53 855.684 224.14 856.384 222.94C857.084 221.74 858.034 220.8 859.234 220.12C860.434 219.44 861.804 219.1 863.344 219.1C864.904 219.1 866.284 219.44 867.484 220.12C868.704 220.8 869.654 221.74 870.334 222.94C871.034 224.14 871.384 225.53 871.384 227.11C871.384 228.67 871.034 230.06 870.334 231.28C869.654 232.48 868.704 233.43 867.484 234.13C866.264 234.81 864.884 235.15 863.344 235.15ZM863.344 233.26C864.484 233.26 865.494 233.01 866.374 232.51C867.254 231.99 867.944 231.27 868.444 230.35C868.964 229.41 869.224 228.33 869.224 227.11C869.224 225.87 868.964 224.79 868.444 223.87C867.944 222.95 867.254 222.24 866.374 221.74C865.494 221.22 864.494 220.96 863.374 220.96C862.254 220.96 861.254 221.22 860.374 221.74C859.494 222.24 858.794 222.95 858.274 223.87C857.754 224.79 857.494 225.87 857.494 227.11C857.494 228.33 857.754 229.41 858.274 230.35C858.794 231.27 859.494 231.99 860.374 232.51C861.254 233.01 862.244 233.26 863.344 233.26ZM875.936 235V219.25H878.096L885.236 231.34H884.336L891.596 219.25H893.576V235H891.626V221.68L892.016 221.86L885.236 233.08H884.276L877.436 221.74L877.886 221.65V235H875.936ZM907.759 240.97C907.019 240.97 906.309 240.85 905.629 240.61C904.969 240.37 904.399 240.01 903.919 239.53L904.909 237.94C905.309 238.32 905.739 238.61 906.199 238.81C906.679 239.03 907.209 239.14 907.789 239.14C908.489 239.14 909.089 238.94 909.589 238.54C910.109 238.16 910.599 237.48 911.059 236.5L912.079 234.19L912.319 233.86L918.799 219.25H920.899L913.009 236.89C912.569 237.91 912.079 238.72 911.539 239.32C911.019 239.92 910.449 240.34 909.829 240.58C909.209 240.84 908.519 240.97 907.759 240.97ZM911.959 235.45L904.699 219.25H906.919L913.339 233.71L911.959 235.45ZM937.778 235.15C936.278 235.15 934.928 234.81 933.728 234.13C932.548 233.43 931.618 232.48 930.938 231.28C930.258 230.06 929.918 228.67 929.918 227.11C929.918 225.53 930.258 224.14 930.938 222.94C931.618 221.74 932.548 220.8 933.728 220.12C934.928 219.44 936.278 219.1 937.778 219.1C939.278 219.1 940.618 219.44 941.798 220.12C942.978 220.8 943.908 221.74 944.588 222.94C945.268 224.14 945.608 225.53 945.608 227.11C945.608 228.67 945.268 230.06 944.588 231.28C943.908 232.48 942.978 233.43 941.798 234.13C940.618 234.81 939.278 235.15 937.778 235.15ZM924.218 235V219.25H926.348V226.03H931.148V227.98H926.348V235H924.218ZM937.778 233.29C938.878 233.29 939.858 233.03 940.718 232.51C941.578 231.99 942.258 231.27 942.758 230.35C943.258 229.41 943.508 228.33 943.508 227.11C943.508 225.87 943.258 224.79 942.758 223.87C942.258 222.95 941.578 222.24 940.718 221.74C939.858 221.22 938.878 220.96 937.778 220.96C936.698 220.96 935.718 221.22 934.838 221.74C933.978 222.24 933.298 222.95 932.798 223.87C932.298 224.79 932.048 225.87 932.048 227.11C932.048 228.33 932.298 229.41 932.798 230.35C933.298 231.27 933.978 231.99 934.838 232.51C935.718 233.03 936.698 233.29 937.778 233.29ZM952.589 235V220.54L953.129 221.11H946.619V219.25H960.689V221.11H954.179L954.719 220.54V235H952.589ZM963.768 235V219.25H965.898V226.21H975.828V219.25H977.958V235H975.828V228.04H965.898V235H963.768ZM990.762 235.15C989.122 235.15 987.682 234.81 986.442 234.13C985.202 233.43 984.232 232.48 983.532 231.28C982.832 230.06 982.482 228.67 982.482 227.11C982.482 225.55 982.812 224.17 983.472 222.97C984.152 221.77 985.072 220.83 986.232 220.15C987.412 219.45 988.732 219.1 990.192 219.1C991.672 219.1 992.982 219.44 994.122 220.12C995.282 220.78 996.192 221.72 996.852 222.94C997.512 224.14 997.842 225.53 997.842 227.11C997.842 227.21 997.832 227.32 997.812 227.44C997.812 227.54 997.812 227.65 997.812 227.77H984.102V226.18H996.672L995.832 226.81C995.832 225.67 995.582 224.66 995.082 223.78C994.602 222.88 993.942 222.18 993.102 221.68C992.262 221.18 991.292 220.93 990.192 220.93C989.112 220.93 988.142 221.18 987.282 221.68C986.422 222.18 985.752 222.88 985.272 223.78C984.792 224.68 984.552 225.71 984.552 226.87V227.2C984.552 228.4 984.812 229.46 985.332 230.38C985.872 231.28 986.612 231.99 987.552 232.51C988.512 233.01 989.602 233.26 990.822 233.26C991.782 233.26 992.672 233.09 993.492 232.75C994.332 232.41 995.052 231.89 995.652 231.19L996.852 232.57C996.152 233.41 995.272 234.05 994.212 234.49C993.172 234.93 992.022 235.15 990.762 235.15ZM1009.31 235.15C1007.67 235.15 1006.23 234.81 1004.99 234.13C1003.75 233.43 1002.78 232.48 1002.08 231.28C1001.38 230.06 1001.03 228.67 1001.03 227.11C1001.03 225.55 1001.36 224.17 1002.02 222.97C1002.7 221.77 1003.62 220.83 1004.78 220.15C1005.96 219.45 1007.28 219.1 1008.74 219.1C1010.22 219.1 1011.53 219.44 1012.67 220.12C1013.83 220.78 1014.74 221.72 1015.4 222.94C1016.06 224.14 1016.39 225.53 1016.39 227.11C1016.39 227.21 1016.38 227.32 1016.36 227.44C1016.36 227.54 1016.36 227.65 1016.36 227.77H1002.65V226.18H1015.22L1014.38 226.81C1014.38 225.67 1014.13 224.66 1013.63 223.78C1013.15 222.88 1012.49 222.18 1011.65 221.68C1010.81 221.18 1009.84 220.93 1008.74 220.93C1007.66 220.93 1006.69 221.18 1005.83 221.68C1004.97 222.18 1004.3 222.88 1003.82 223.78C1003.34 224.68 1003.1 225.71 1003.1 226.87V227.2C1003.1 228.4 1003.36 229.46 1003.88 230.38C1004.42 231.28 1005.16 231.99 1006.1 232.51C1007.06 233.01 1008.15 233.26 1009.37 233.26C1010.33 233.26 1011.22 233.09 1012.04 232.75C1012.88 232.41 1013.6 231.89 1014.2 231.19L1015.4 232.57C1014.7 233.41 1013.82 234.05 1012.76 234.49C1011.72 234.93 1010.57 235.15 1009.31 235.15Z" fill="#2B2B2B"/>
<path d="M416 269.72L970 269" stroke="#6FAF7A" stroke-width="8" stroke-linecap="round"/>
<path d="M993 257.991C1017.12 245.98 1039.32 254.988 1048 280.009C1022.91 293.02 1001.68 283.012 993 257.991Z" fill="#6FAF7A" stroke="#2F5D50" stroke-width="5" stroke-linejoin="round"/>
<path opacity="0.55" d="M1002 260.72C1015.35 265.72 1029.65 270.72 1043 277.72" stroke="#2F5D50" stroke-width="3" stroke-linecap="round"/>
</svg>