<svg width="52" height="52" viewBox="0 0 52 52" fill="none" xmlns="http://www.w3.org/2000/svg">
<path d="M26 49.5625C39.0132 49.5625 49.5625 39.0132 49.5625 26C49.5625 12.9868 39.0132 2.4375 26 2.4375C12.9868 2.4375 2.4375 12.9868 2.4375 26C2.4375 39.0132 12.9868 49.5625 26 49.5625Z" fill="#CBE8CE"/>
<path d="M26 24.8877C30.4873 24.8877 34.125 21.25 34.125 16.7627C34.125 12.2754 30.4873 8.6377 26 8.6377C21.5127 8.6377 17.875 12.2754 17.875 16.7627C17.875 21.25 21.5127 24.8877 26 24.8877Z" stroke="#2F5D50" stroke-width="2"/>
<path d="M26 28.1807C13 28.1807 13 34.001 13 41.1807H39C39 34.001 39 28.1807 26 28.1807Z" stroke="#2F5D50" stroke-width="2" stroke-linejoin="round"/>
</svg>
