<svg width="172" height="170" viewBox="0 0 172 170" fill="none" xmlns="http://www.w3.org/2000/svg">
<path d="M85 162.031C127.543 162.031 162.031 127.543 162.031 85C162.031 42.4568 127.543 7.96875 85 7.96875C42.4568 7.96875 7.96875 42.4568 7.96875 85C7.96875 127.543 42.4568 162.031 85 162.031Z" fill="#F7F4EF"/>
<path d="M85 81.3652C99.6701 81.3652 111.562 69.4728 111.562 54.8027C111.562 40.1327 99.6701 28.2402 85 28.2402C70.3299 28.2402 58.4375 40.1327 58.4375 54.8027C58.4375 69.4728 70.3299 81.3652 85 81.3652Z" stroke="#2F5D50" stroke-width="2"/>
<path d="M85 92.1299C42.5 92.1299 42.5 111.158 42.5 134.63H127.5C127.5 111.158 127.5 92.1299 85 92.1299Z" stroke="#2F5D50" stroke-width="2" stroke-linejoin="round"/>
<path d="M147.5 158C159.926 158 170 147.926 170 135.5C170 123.074 159.926 113 147.5 113C135.074 113 125 123.074 125 135.5C125 147.926 135.074 158 147.5 158Z" fill="#DDEEDC" stroke="#2F5D50" stroke-width="3"/>
<path d="M148 122V152M133 137H163" stroke="#2F5D50" stroke-width="3" stroke-linecap="round"/>
</svg>
