<svg width="250" height="250" viewBox="0 0 250 250" fill="none" xmlns="http://www.w3.org/2000/svg">
<path d="M125 232.422C184.327 232.422 232.422 184.327 232.422 125C232.422 65.6725 184.327 17.5781 125 17.5781C65.6725 17.5781 17.5781 65.6725 17.5781 125C17.5781 184.327 65.6725 232.422 125 232.422Z" fill="#EDF3E9"/>
<path d="M171.875 67.8711H78.125C66.7988 67.8711 57.6172 77.0528 57.6172 88.3789V142.09C57.6172 153.416 66.7988 162.598 78.125 162.598H171.875C183.201 162.598 192.383 153.416 192.383 142.09V88.3789C192.383 77.0528 183.201 67.8711 171.875 67.8711Z" fill="#F8F5EF" stroke="#2F5D50" stroke-width="10"/>
<path d="M92.462 167.152L88.0318 205.193L104.228 186.021L120.425 166.848" fill="#F8F5EF"/>
<path d="M92.462 167.152L88.0318 205.193L104.228 186.021L120.425 166.848" stroke="#2F5D50" stroke-width="10" stroke-linecap="square" stroke-linejoin="round"/>
<path d="M86.9141 100.098H163.086" stroke="#2F5D50" stroke-width="10" stroke-linecap="round"/>
<path d="M86.9141 125.488H142.578" stroke="#2F5D50" stroke-width="10" stroke-linecap="round"/>
<path d="M168.213 127.93L172.241 137.092H181.641L174.255 143.2L176.941 152.832L168.213 146.959L159.485 152.832L162.17 143.2L154.785 137.092H164.185L168.213 127.93Z" fill="#6FAF7A" stroke="#2F5D50" stroke-width="3" stroke-linejoin="round"/>
<path d="M162.598 51.2692C185.059 43.4567 204.102 53.7106 209.961 73.7301C187.5 80.5661 168.945 70.3121 162.598 51.2692Z" fill="#6FAF7A" stroke="#2F5D50" stroke-width="6" stroke-linejoin="round"/>
<path d="M165.039 53.7109C176.27 56.1523 189.209 68.6035 206.055 72.2656" stroke="#2F5D50" stroke-width="3" stroke-linecap="round"/>
</svg>
