<svg width="64" height="64" viewBox="0 0 64 64" fill="none" xmlns="http://www.w3.org/2000/svg">
<path d="M32 64C49.6731 64 64 49.6731 64 32C64 14.3269 49.6731 0 32 0C14.3269 0 0 14.3269 0 32C0 49.6731 14.3269 64 32 64Z" fill="white"/>
<path d="M32 42C37.5228 42 42 37.5228 42 32C42 26.4772 37.5228 22 32 22C26.4772 22 22 26.4772 22 32C22 37.5228 26.4772 42 32 42Z" fill="#F8F5EF" stroke="#2F5D50" stroke-width="5"/>
<path d="M32 12.5938V9M32 55V51.4062M51.4062 32H55M9 32H12.5938M45.6562 18.3438L49.25 14.75M14.75 49.25L18.3438 45.6562M45.6562 45.6562L49.25 49.25M14.75 14.75L18.3438 18.3438" stroke="#6FAF7A" stroke-width="5" stroke-linecap="round"/>
</svg>
