<svg width="64" height="64" viewBox="0 0 64 64" fill="none" xmlns="http://www.w3.org/2000/svg">
<path d="M32 64C49.6731 64 64 49.6731 64 32C64 14.3269 49.6731 0 32 0C14.3269 0 0 14.3269 0 32C0 49.6731 14.3269 64 32 64Z" fill="#DDEEDC"/>
<path d="M25.5 32V12.6857C25.5 8.97143 28.3889 6 32 6C35.6111 6 38.5 8.97143 38.5 12.6857V32C42.8333 34.9714 45 39.4286 45 44.6286C45 52.0571 39.2222 58 32 58C24.7778 58 19 52.0571 19 44.6286C19 39.4286 21.8889 34.9714 25.5 32Z" fill="#F8F5EF" stroke="#2F5D50" stroke-width="5"/>
<path d="M32 12V39" stroke="#6FAF7A" stroke-width="3" stroke-linecap="round"/>
<path d="M38 13H36" stroke="#2F5D50" stroke-width="3" stroke-linecap="round"/>
<path d="M38 18H36" stroke="#2F5D50" stroke-width="3" stroke-linecap="round"/>
<path d="M38 23H36" stroke="#2F5D50" stroke-width="3" stroke-linecap="round"/>
<path d="M38 28H36" stroke="#2F5D50" stroke-width="3" stroke-linecap="round"/>
</svg>
