<svg width="71" height="71" viewBox="0 0 71 71" fill="none" xmlns="http://www.w3.org/2000/svg">
<path d="M35.2 70.4C54.6404 70.4 70.4 54.6404 70.4 35.2C70.4 15.7596 54.6404 0 35.2 0C15.7596 0 0 15.7596 0 35.2C0 54.6404 15.7596 70.4 35.2 70.4Z" fill="#DDEEDC"/>
<path d="M55 19.7998H16.5C13.4624 19.7998 11 22.2622 11 25.2998V45.0998C11 48.1374 13.4624 50.5998 16.5 50.5998H55C58.0376 50.5998 60.5 48.1374 60.5 45.0998V25.2998C60.5 22.2622 58.0376 19.7998 55 19.7998Z" fill="#F8F5EF" stroke="#2F5D50" stroke-width="2.75"/>
<path d="M35.7498 42.9C40.0024 42.9 43.4498 39.4526 43.4498 35.2C43.4498 30.9474 40.0024 27.5 35.7498 27.5C31.4972 27.5 28.0498 30.9474 28.0498 35.2C28.0498 39.4526 31.4972 42.9 35.7498 42.9Z" stroke="#6FAF7A" stroke-width="2.75"/>
<path d="M18.7002 28.5996H23.1002M48.4002 41.7996H52.8002" stroke="#2F5D50" stroke-width="2.75" stroke-linecap="round"/>
</svg>
