<svg width="64" height="64" viewBox="0 0 64 64" fill="none" xmlns="http://www.w3.org/2000/svg">
<path d="M32 64C49.6731 64 64 49.6731 64 32C64 14.3269 49.6731 0 32 0C14.3269 0 0 14.3269 0 32C0 49.6731 14.3269 64 32 64Z" fill="#DDEEDC"/>
<path d="M32 9C40.5556 22.0333 46 30.4667 46 39.6667C46 48.8667 39.7778 55 32 55C24.2222 55 18 48.8667 18 39.6667C18 30.4667 23.4444 22.0333 32 9Z" fill="#F8F5EF" stroke="#2F5D50" stroke-width="5"/>
<path d="M27 42C28.4 45.3333 30.5 47.3333 34 48" stroke="#6FAF7A" stroke-width="4" stroke-linecap="round"/>
</svg>
